<svg xmlns:dc="http://purl.org/dc/elements/1.1/" xmlns:cc="http://creativecommons.org/ns#" xmlns:rdf="http://www.w3.org/1999/02/22-rdf-syntax-ns#" xmlns:svg="http://www.w3.org/2000/svg" xmlns="http://www.w3.org/2000/svg" xmlns:sodipodi="http://sodipodi.sourceforge.net/DTD/sodipodi-0.dtd" xmlns:inkscape="http://www.inkscape.org/namespaces/inkscape" version="1.1" x="0px" y="0px" viewBox="0 0 100 125"><g transform="translate(0,-952.36218)"><path style="text-indent:0;text-transform:none;direction:ltr;block-progression:tb;baseline-shift:baseline;color:#000000;enable-background:accumulate;" d="m 66.031792,957.48356 c -4.71619,1.59338 -9.18653,3.20526 -12.46826,6.53151 -3.28174,3.32624 -5.01541,8.29549 -4.46858,15.50062 0.0795,1.14707 1.31611,2.0667 2.4374,1.81257 4.89823,-1.10326 9.69805,-3.0344 13.09325,-6.62527 3.3952,-3.59086 5.14618,-8.8756 4.03109,-15.65687 -0.28124,-1.57538 -1.44833,-1.90196 -2.6249,-1.56256 z m -1.1562,4.71893 c 0.2201,4.3881 -0.98195,7.45092 -3.15613,9.75039 -2.07803,2.19779 -5.22887,3.60832 -8.65592,4.65644 0.0458,-4.77015 1.2786,-7.6886 3.34363,-9.78164 1.95946,-1.98604 5.00103,-3.34411 8.46842,-4.62519 z m -27.873926,16.1569 c -14.186953,0.0184 -24.186567,12.01891 -23.999074,25.00101 0,10.9449 3.591549,21.7238 8.249682,29.8762 2.329066,4.0762 4.929656,7.4883 7.562208,9.9692 2.632552,2.4808 5.312295,4.1564 8.187184,4.1564 3.444311,0 6.457066,-1.108 8.999656,-2.1251 2.54259,-1.0171 4.66649,-1.8751 5.99977,-1.8751 1.33327,0 3.13713,0.8215 5.43729,1.8438 2.30015,1.0224 5.11786,2.1564 8.56217,2.1564 4.9998,0 9.59737,-3.4817 13.31198,-8.1253 3.71462,-4.6437 6.58445,-10.6069 7.65596,-16.5007 0.13914,-0.7473 -0.19165,-1.5616 -0.81247,-2.0001 -6.16735,-3.8838 -11.09365,-8.9751 -11.15582,-15.3756 0,-4.8891 4.46579,-10.62312 10.28085,-15.4694 0.76638,-0.64949 0.91153,-1.9124 0.31249,-2.71886 -3.38387,-4.51218 -9.70449,-8.81285 -16.59311,-8.81285 -3.52732,0 -6.84239,1.32823 -9.81212,2.5626 -2.9386,1.22143 -5.61132,2.29521 -7.24972,2.40635 -1.1769,-0.0274 -3.29966,-0.99369 -5.81228,-2.25009 -2.5476,-1.2739 -5.569227,-2.71886 -9.124646,-2.71886 z m 0,4.00016 c 2.44435,0 4.891265,1.05514 7.343466,2.28134 2.45221,1.2262 4.82273,2.71886 7.65596,2.71886 3.20467,-0.30579 6.21355,-1.70352 8.71836,-2.75011 2.89306,-1.2025 5.80849,-2.25009 8.28093,-2.25009 4.46806,0 9.24671,2.86227 12.15578,5.90649 -5.49964,4.87722 -10.15586,10.61044 -10.15586,17.09446 0.0345,8.7716 5.72007,13.5726 11.7183,17.8132 -1.08913,4.7724 -3.49166,9.7636 -6.531,13.5631 -3.28511,4.1067 -7.18722,6.6252 -10.1871,6.6252 -2.55547,0 -4.73756,-0.8348 -6.93724,-1.8126 -2.19967,-0.9777 -4.39566,-2.1875 -7.06222,-2.1875 -2.66657,0 -5.0425,1.1733 -7.49972,2.1563 -2.457211,0.983 -4.944248,1.8438 -7.499706,1.8438 -1.124956,0 -3.195031,-0.9495 -5.43729,-3.0626 -2.24226,-2.1131 -4.672726,-5.2637 -6.843486,-9.0629 -4.341521,-7.5982 -7.718452,-17.8201 -7.718452,-27.8761 -0.187443,-11.98206 9.812171,-20.98242 19.999278,-21.00085 z" fill="#000000" fill-opacity="1" stroke="none" marker="none" visibility="visible" display="inline" overflow="visible"/></g><text x="0" y="115" fill="#000000" font-size="5px" font-weight="bold" font-family="'Helvetica Neue', Helvetica, Arial-Unicode, Arial, Sans-serif">Created by zidney</text><text x="0" y="120" fill="#000000" font-size="5px" font-weight="bold" font-family="'Helvetica Neue', Helvetica, Arial-Unicode, Arial, Sans-serif">from the Noun Project</text></svg>